<mxfile host="app.diagrams.net" modified="2023-03-07T08:38:28.343Z" agent="5.0 (Macintosh; Intel Mac OS X 10_15_7) AppleWebKit/537.36 (KHTML, like Gecko) Chrome/110.0.0.0 Safari/537.36" etag="yL9AAG9Re1DNnjA2IJEn" version="21.0.2" type="github">
  <diagram name="Page-1" id="ykmcjaAbNN_aZ3ureI38">
    <mxGraphModel dx="2074" dy="1156" grid="1" gridSize="10" guides="1" tooltips="1" connect="1" arrows="1" fold="1" page="1" pageScale="1" pageWidth="850" pageHeight="1100" math="0" shadow="0">
      <root>
        <mxCell id="0" />
        <mxCell id="1" parent="0" />
        <mxCell id="xO9FXWd0AhFiIOjbUq09-1" value="SWIB/P2P方案" style="rounded=0;whiteSpace=wrap;html=1;" vertex="1" parent="1">
          <mxGeometry x="40" y="440" width="120" height="40" as="geometry" />
        </mxCell>
        <mxCell id="xO9FXWd0AhFiIOjbUq09-2" value="SWIB&amp;nbsp; 硬件环境&lt;br&gt;需要device/SWIB&amp;nbsp;" style="rounded=0;whiteSpace=wrap;html=1;" vertex="1" parent="1">
          <mxGeometry x="40" y="480" width="120" height="40" as="geometry" />
        </mxCell>
        <mxCell id="xO9FXWd0AhFiIOjbUq09-3" value="P2P&amp;nbsp; 硬件环境&lt;br&gt;需要device/SWIB&amp;nbsp;" style="rounded=0;whiteSpace=wrap;html=1;" vertex="1" parent="1">
          <mxGeometry x="40" y="520" width="120" height="40" as="geometry" />
        </mxCell>
      </root>
    </mxGraphModel>
  </diagram>
</mxfile>
